<svg width="400" height="100" viewBox="0 0 400 100" fill="none" xmlns="http://www.w3.org/2000/svg">
  <style>
    .bar {
      transform-origin: center;
      animation: equalize 2s ease-in-out infinite alternate;
    }
    @keyframes equalize {
      0% { transform: scaleY(0.5); }
      50% { transform: scaleY(1); }
      100% { transform: scaleY(0.5); }
    }
  </style>
  <rect class="bar" x="10" y="40" width="8" height="20" rx="5" fill="black" style="animation-delay: 0s;"/>
  <rect class="bar" x="30" y="35" width="8" height="30" rx="5" fill="black" style="animation-delay: 0.1s;"/>
  <rect class="bar" x="50" y="30" width="8" height="40" rx="5" fill="black" style="animation-delay: 0.2s;"/>
  <rect class="bar" x="70" y="25" width="8" height="50" rx="5" fill="black" style="animation-delay: 0.3s;"/>
  <rect class="bar" x="90" y="20" width="8" height="60" rx="5" fill="black" style="animation-delay: 0.4s;"/>
  <rect class="bar" x="110" y="15" width="8" height="70" rx="5" fill="black" style="animation-delay: 0.5s;"/>
  <rect class="bar" x="130" y="10" width="8" height="80" rx="5" fill="black" style="animation-delay: 0.6s;"/>
  <rect class="bar" x="150" y="15" width="8" height="70" rx="5" fill="black" style="animation-delay: 0.7s;"/>
  <rect class="bar" x="170" y="20" width="8" height="60" rx="5" fill="black" style="animation-delay: 0.8s;"/>
  <rect class="bar" x="190" y="25" width="8" height="50" rx="5" fill="black" style="animation-delay: 0.9s;"/>
  <rect class="bar" x="210" y="25" width="8" height="50" rx="5" fill="black" style="animation-delay: 1s;"/>
  <rect class="bar" x="230" y="20" width="8" height="60" rx="5" fill="black" style="animation-delay: 1.1s;"/>
  <rect class="bar" x="250" y="15" width="8" height="70" rx="5" fill="black" style="animation-delay: 1.2s;"/>
  <rect class="bar" x="270" y="10" width="8" height="80" rx="5" fill="black" style="animation-delay: 1.3s;"/>
  <rect class="bar" x="290" y="15" width="8" height="70" rx="5" fill="black" style="animation-delay: 1.4s;"/>
  <rect class="bar" x="310" y="20" width="8" height="60" rx="5" fill="black" style="animation-delay: 1.5s;"/>
  <rect class="bar" x="330" y="25" width="8" height="50" rx="5" fill="black" style="animation-delay: 1.6s;"/>
  <rect class="bar" x="350" y="30" width="8" height="40" rx="5" fill="black" style="animation-delay: 1.7s;"/>
  <rect class="bar" x="370" y="35" width="8" height="30" rx="5" fill="black" style="animation-delay: 1.8s;"/>
  <rect class="bar" x="390" y="40" width="8" height="20" rx="5" fill="black" style="animation-delay: 1.9s;"/>
</svg>
